<svg width="30" height="30" viewBox="0 0 30 30" fill="none" xmlns="http://www.w3.org/2000/svg">
<g id="icon/action/perm_media_24px">
<path id="icon/action/perm_media_24px_2" fill-rule="evenodd" clip-rule="evenodd" d="M27.5 5H17.5L15 2.5H7.5C6.125 2.5 5.0125 3.625 5.0125 5L5 20C5 21.375 6.125 22.5 7.5 22.5H27.5C28.875 22.5 30 21.375 30 20V7.5C30 6.125 28.875 5 27.5 5ZM0 7.5H2.5V25H25V27.5H2.5C1.125 27.5 0 26.375 0 25L0.0125 13.75H0V7.5ZM8.75 18.75L14.375 11.25L18.75 16.8875L21.875 13.125L26.25 18.75H8.75ZM7.5 20H27.5V7.5H16.4625L15.725 6.7625L13.9625 5H7.5V20Z" fill="black"/>
</g>
</svg>
